-
 
http://www.Speed. Cd       the fast  and The Hottest Private Tracker on the net 
http://www.Speed. Cd

Please Seed back to make the speed Faster!!
 ............ NFO .............
-
 
http://www.Speed. Cd                                                                                                     
       
     
     
       
       
     
     
                                         
                                         
                EXVID                    
                                         
         
                                         
         Filled the Archives             
                                         
         
                                         
                With:                    
                                         
         
                                         
                                    
     E240                           
                                    
     SP               (C) 2009      
                                         
     
     
     
                                                                                  
                                                                                   
           Death.and.the.Maiden.1994.PROPER.DVDRip.XviD-EXViD                       
                                                                                   
                                                                                  
     
                                                                                               
EXViD aims to iNTERNAL those releases which have been lost in the archives.
EXViD aims to PRE non-internal releases which have poor sources and are likely skipped by others. 
http://www.imdb.com/title/tt0109579/
Subtitles: English
Date: 2013.03

Director: Roman Polanski

Genre: Drama | Mystery | Thriller

Plot:
A political activist is convinced that her guest is a man who once tortured her for the
government.

Cast:
Sigourney Weaver	 ...	Paulina Escobar
Ben Kingsley	 ...	Dr. Roberto Miranda
Stuart Wilson	 ...	Gerardo Escobar

Stats:
Format                           : AVI
Format/Info                      : Audio Video Interleave
File size                        : 701 MiB
Duration                         : 1h 43mn
Overall bit rate                 : 948 Kbps
Writing application              : Nandub v1.0rc2
Writing library                  : Nandub build 1852/release

Video
ID                               : 0
Format                           : MPEG-4 Visual
Format profile                   : Advanced Simple@L5
Format settings, BVOP            : 2
Format settings, QPel            : No
Format settings, GMC             : No warppoints
Format settings, Matrix          : Default (H.263)
Codec ID                         : XVID
Codec ID/Hint                    : XviD
Duration                         : 1h 43mn
Bit rate                         : 815 Kbps
Width                            : 608 pixels
Height                           : 336 pixels
Display aspect ratio             : 16:9
Frame rate                       : 23.976 fps
Color space                      : YUV
Chroma subsampling               : 4:2:0
Bit depth                        : 8 bits
Scan type                        : Progressive
Compression mode                 : Lossy
Bits/(Pixel*Frame)               : 0.166
Stream size                      : 603 MiB (86%)
Writing library                  : XviD 64

Audio
ID                               : 1
Format                           : MPEG Audio
Format version                   : Version 1
Format profile                   : Layer 3
Mode                             : Joint stereo
Codec ID                         : 55
Codec ID/Hint                    : MP3
Duration                         : 1h 43mn
Bit rate mode                    : Variable
Bit rate                         : 120 Kbps
Nominal bit rate                 : 128 Kbps
Channel(s)                       : 2 channels
Sampling rate                    : 48.0 KHz
Compression mode                 : Lossy
Stream size                      : 88.6 MiB (13%)
Alignment                        : Aligned on interleaves
Interleave, duration             : 24 ms (0.58 video frame)
Interleave, preload duration     : 147 ms
Writing library                  : LAME3.98r
Encoding settings                : -m j -V 4 -q 3 -lowpass 17 --abr 128




Release notes:
The 2002 MDX rip has ghosting (source = NTSC to PAL transfer). Sample included.

Looking for:
75TB+ Archives
DUTCH/FLEMiSH Archives
                                                                                                    
Greets: CRBS EPiSODE FiCO FLS iLS KLASSiGER LiPSYNC MADE NODLABS RUNNER SPRiNTER      
   

                                                                    ASCII DONE BY XX^NFO 2oo9